<svg width="153" height="113" viewBox="0 0 153 113" fill="none" xmlns="http://www.w3.org/2000/svg">
<path d="M22.0227 94.1667V25.8958C22.0227 21.6583 25.2682 18.3625 29.4409 18.3625C31.7591 18.3625 34.0772 19.3042 35.7 21.1875L69.5454 60.0312L103.391 21.1875C105.014 19.3042 107.332 18.3625 109.65 18.3625C113.823 18.3625 117.068 21.6583 117.068 25.8958V94.1667C117.068 98.4042 113.823 101.7 109.65 101.7C105.477 101.7 102.232 98.4042 102.232 94.1667V44.7292L75.8045 74.8625C74.1818 76.7458 71.8636 77.9229 69.5454 77.9229C67.2272 77.9229 64.9091 76.7458 63.2863 74.8625L36.8591 44.7292V94.1667C36.8591 98.4042 33.6136 101.7 29.4409 101.7C25.2682 101.7 22.0227 98.4042 22.0227 94.1667Z" fill="white"/>
<path d="M139.091 104.054C144.468 104.054 148.827 99.6274 148.827 94.1667C148.827 88.706 144.468 84.2792 139.091 84.2792C133.714 84.2792 129.354 88.706 129.354 94.1667C129.354 99.6274 133.714 104.054 139.091 104.054Z" fill="#2554F0"/>
</svg>
