<svg width="12" height="16" viewBox="0 0 12 16" fill="none" xmlns="http://www.w3.org/2000/svg">
<path fill-rule="evenodd" clip-rule="evenodd" d="M0 2.25C0 1.65326 0.237053 1.08097 0.65901 0.65901C1.08097 0.237053 1.65326 0 2.25 0H9.75C10.3467 0 10.919 0.237053 11.341 0.65901C11.7629 1.08097 12 1.65326 12 2.25V14.271C12 15.186 10.965 15.7185 10.221 15.1868L6 12.1718L1.779 15.1868C1.03425 15.7193 0 15.1867 0 14.2717V2.25ZM2.25 1.5C2.05109 1.5 1.86032 1.57902 1.71967 1.71967C1.57902 1.86032 1.5 2.05109 1.5 2.25V13.5427L5.346 10.7955C5.53682 10.6592 5.76548 10.5859 6 10.5859C6.23452 10.5859 6.46318 10.6592 6.654 10.7955L10.5 13.5427V2.25C10.5 2.05109 10.421 1.86032 10.2803 1.71967C10.1397 1.57902 9.94891 1.5 9.75 1.5H2.25Z" fill="#09244B"/>
</svg>
