<svg width="28" height="28" viewBox="0 0 28 28" fill="none" xmlns="http://www.w3.org/2000/svg">
<path fill-rule="evenodd" clip-rule="evenodd" d="M4.6665 8.16655V5.81222C4.6665 4.66889 5.31284 3.62239 6.336 3.11022L6.66734 2.94455C7.85744 2.34946 9.17844 2.0642 10.5081 2.11518C11.8377 2.16617 13.133 2.55174 14.274 3.23622C14.9636 3.65018 15.7346 3.91007 16.534 3.99807C17.3335 4.08607 18.1426 4.0001 18.9057 3.74605L22.7428 2.46739C22.9689 2.39219 23.2114 2.38138 23.4432 2.43618C23.675 2.49097 23.887 2.60921 24.0554 2.77764C24.2239 2.94608 24.3421 3.15807 24.3969 3.38989C24.4517 3.6217 24.4409 3.8642 24.3657 4.09022L22.2423 10.4637L24.3703 15.7849C24.4353 15.9472 24.4664 16.1211 24.4617 16.2959C24.457 16.4707 24.4167 16.6426 24.3432 16.8013C24.2696 16.9599 24.1645 17.1018 24.0341 17.2183C23.9038 17.3349 23.751 17.4235 23.5852 17.4789L19.6442 18.7926C18.5618 19.1534 17.4141 19.2758 16.2799 19.1513C15.1457 19.0269 14.0519 18.6585 13.0735 18.0716C12.2691 17.5888 11.3559 17.3168 10.4184 17.2807C9.48093 17.2446 8.5495 17.4456 7.71034 17.8651L6.99984 18.2209V24.4999C6.99984 24.8093 6.87692 25.1061 6.65813 25.3248C6.43934 25.5436 6.14259 25.6666 5.83317 25.6666C5.52375 25.6666 5.22701 25.5436 5.00821 25.3248C4.78942 25.1061 4.6665 24.8093 4.6665 24.4999V17.4999V8.16655Z" fill="#09244B"/>
</svg>
