<svg width="28" height="28" viewBox="0 0 28 28" fill="none" xmlns="http://www.w3.org/2000/svg">
<g clip-path="url(#clip0_224_1735)">
<path fill-rule="evenodd" clip-rule="evenodd" d="M4.66675 8.16655V5.81222C4.66675 4.66889 5.31308 3.62239 6.33625 3.11022L6.66758 2.94455C7.85769 2.34946 9.17869 2.0642 10.5083 2.11518C11.8379 2.16617 13.1332 2.55174 14.2742 3.23622C14.9638 3.65018 15.7348 3.91007 16.5343 3.99807C17.3337 4.08607 18.1428 4.0001 18.9059 3.74605L22.7431 2.46739C22.9691 2.39219 23.2116 2.38138 23.4434 2.43618C23.6752 2.49097 23.8872 2.60921 24.0557 2.77764C24.2241 2.94608 24.3423 3.15807 24.3971 3.38989C24.4519 3.6217 24.4411 3.8642 24.3659 4.09022L22.2426 10.4637L24.3706 15.7849C24.4355 15.9472 24.4666 16.1211 24.4619 16.2959C24.4573 16.4707 24.4169 16.6426 24.3434 16.8013C24.2699 16.9599 24.1647 17.1018 24.0344 17.2183C23.904 17.3349 23.7513 17.4235 23.5854 17.4789L19.6444 18.7926C18.562 19.1534 17.4143 19.2758 16.2802 19.1513C15.146 19.0269 14.0522 18.6585 13.0737 18.0716C12.2693 17.5888 11.3561 17.3168 10.4186 17.2807C9.48117 17.2446 8.54974 17.4456 7.71058 17.8651L7.00008 18.2209V24.4999C7.00008 24.8093 6.87717 25.1061 6.65837 25.3248C6.43958 25.5436 6.14283 25.6666 5.83341 25.6666C5.524 25.6666 5.22725 25.5436 5.00846 25.3248C4.78966 25.1061 4.66675 24.8093 4.66675 24.4999V17.4999V8.16655Z" fill="#09244B"/>
</g>
<defs>
<clipPath id="clip0_224_1735">
<rect width="28" height="28" fill="white"/>
</clipPath>
</defs>
</svg>
