<svg width="28" height="28" viewBox="0 0 28 28" fill="none" xmlns="http://www.w3.org/2000/svg">
<path d="M15.1666 15.1667C16.4043 15.1667 17.5912 15.6583 18.4664 16.5335C19.3416 17.4087 19.8333 18.5957 19.8333 19.8333V21.5833C19.8333 22.0475 19.6489 22.4926 19.3207 22.8208C18.9925 23.149 18.5474 23.3333 18.0833 23.3333H4.08325C3.61912 23.3333 3.174 23.149 2.84582 22.8208C2.51763 22.4926 2.33325 22.0475 2.33325 21.5833V19.8333C2.33325 18.5957 2.82492 17.4087 3.70009 16.5335C4.57526 15.6583 5.76224 15.1667 6.99992 15.1667H15.1666ZM22.1666 15.1667C23.0948 15.1667 23.9851 15.5354 24.6415 16.1918C25.2978 16.8482 25.6666 17.7384 25.6666 18.6667V20.4167C25.6666 20.8808 25.4822 21.3259 25.154 21.6541C24.8258 21.9823 24.3807 22.1667 23.9166 22.1667H22.1666V19.8333C22.1673 18.9276 21.9568 18.0342 21.5517 17.2241C21.1467 16.414 20.5583 15.7095 19.8333 15.1667H22.1666ZM11.0833 3.5C12.4756 3.5 13.811 4.05312 14.7956 5.03769C15.7801 6.02226 16.3333 7.35761 16.3333 8.75C16.3333 10.1424 15.7801 11.4777 14.7956 12.4623C13.811 13.4469 12.4756 14 11.0833 14C9.69087 14 8.35551 13.4469 7.37094 12.4623C6.38638 11.4777 5.83325 10.1424 5.83325 8.75C5.83325 7.35761 6.38638 6.02226 7.37094 5.03769C8.35551 4.05312 9.69087 3.5 11.0833 3.5ZM20.9999 7C21.9282 7 22.8184 7.36875 23.4748 8.02513C24.1312 8.6815 24.4999 9.57174 24.4999 10.5C24.4999 11.4283 24.1312 12.3185 23.4748 12.9749C22.8184 13.6313 21.9282 14 20.9999 14C20.0717 14 19.1814 13.6313 18.525 12.9749C17.8687 12.3185 17.4999 11.4283 17.4999 10.5C17.4999 9.57174 17.8687 8.6815 18.525 8.02513C19.1814 7.36875 20.0717 7 20.9999 7Z" fill="#09244B"/>
</svg>
