<svg width="80" height="80" viewBox="0 0 80 80" fill="none" xmlns="http://www.w3.org/2000/svg">
<path fill-rule="evenodd" clip-rule="evenodd" d="M16.6667 40.0002C14.8258 40.0002 13.3334 41.4925 13.3334 43.3335V66.6668C13.3334 68.5078 14.8258 70.0001 16.6667 70.0001H63.3334C65.1743 70.0001 66.6667 68.5078 66.6667 66.6668V43.3335C66.6667 41.4925 65.1743 40.0002 63.3334 40.0002H16.6667ZM6.66675 43.3335C6.66675 37.8106 11.1439 33.3335 16.6667 33.3335H63.3334C68.8562 33.3335 73.3334 37.8106 73.3334 43.3335V66.6668C73.3334 72.1897 68.8562 76.6668 63.3334 76.6668H16.6667C11.1439 76.6668 6.66675 72.1897 6.66675 66.6668V43.3335Z" fill="black"/>
<path fill-rule="evenodd" clip-rule="evenodd" d="M40 10.0002C36.4638 10.0002 33.0724 11.4049 30.5719 13.9054C28.0714 16.4059 26.6667 19.7973 26.6667 23.3335V36.6669C26.6667 38.5078 25.1743 40.0002 23.3333 40.0002C21.4924 40.0002 20 38.5078 20 36.6669V23.3335C20 18.0292 22.1071 12.9421 25.8579 9.19136C29.6086 5.44063 34.6957 3.3335 40 3.3335C45.3043 3.3335 50.3914 5.44063 54.1421 9.19136C57.8929 12.9421 60 18.0292 60 23.3335V36.6669C60 38.5078 58.5076 40.0002 56.6667 40.0002C54.8257 40.0002 53.3333 38.5078 53.3333 36.6669V23.3335C53.3333 19.7973 51.9286 16.4059 49.4281 13.9054C46.9276 11.4049 43.5362 10.0002 40 10.0002Z" fill="black"/>
</svg>
