<svg width="50" height="36" viewBox="0 0 50 36" fill="none" xmlns="http://www.w3.org/2000/svg">
<path d="M7.19678 30.0001V8.2501C7.19678 6.9001 8.25738 5.8501 9.62102 5.8501C10.3786 5.8501 11.1362 6.1501 11.6665 6.7501L22.7271 19.1251L33.7877 6.7501C34.318 6.1501 35.0756 5.8501 35.8331 5.8501C37.1968 5.8501 38.2574 6.9001 38.2574 8.2501V30.0001C38.2574 31.3501 37.1968 32.4001 35.8331 32.4001C34.4695 32.4001 33.4089 31.3501 33.4089 30.0001V14.2501L24.7725 23.8501C24.2422 24.4501 23.4847 24.8251 22.7271 24.8251C21.9695 24.8251 21.2119 24.4501 20.6816 23.8501L12.0453 14.2501V30.0001C12.0453 31.3501 10.9847 32.4001 9.62102 32.4001C8.25738 32.4001 7.19678 31.3501 7.19678 30.0001Z" fill="url(#paint0_linear_224_1716)"/>
<path d="M45.4548 33.1501C47.212 33.1501 48.6366 31.7398 48.6366 30.0001C48.6366 28.2604 47.212 26.8501 45.4548 26.8501C43.6975 26.8501 42.2729 28.2604 42.2729 30.0001C42.2729 31.7398 43.6975 33.1501 45.4548 33.1501Z" fill="#2554F0"/>
<defs>
<linearGradient id="paint0_linear_224_1716" x1="7.19678" y1="5.8501" x2="33.4233" y2="36.5322" gradientUnits="userSpaceOnUse">
<stop stop-color="#0D1230"/>
<stop offset="1" stop-color="#1B2450"/>
</linearGradient>
</defs>
</svg>
