<svg width="28" height="28" viewBox="0 0 28 28" fill="none" xmlns="http://www.w3.org/2000/svg">
<g clip-path="url(#clip0_120_1448)">
<path fill-rule="evenodd" clip-rule="evenodd" d="M5.83346 10.5C5.83342 9.37024 6.06777 8.2528 6.52169 7.21829C6.97561 6.18379 7.63923 5.25471 8.47059 4.48979C9.30195 3.72488 10.283 3.14077 11.3516 2.7744C12.4203 2.40803 13.5533 2.26736 14.6791 2.36128C14.8336 2.37147 14.9845 2.4123 15.123 2.48139C15.2615 2.55048 15.3849 2.64644 15.486 2.7637C15.5871 2.88095 15.6638 3.01715 15.7117 3.16435C15.7596 3.31155 15.7778 3.46682 15.7651 3.6211C15.7524 3.77538 15.7091 3.9256 15.6378 4.06299C15.5665 4.20038 15.4685 4.3222 15.3496 4.42135C15.2307 4.52051 15.0933 4.59501 14.9453 4.64053C14.7974 4.68604 14.6418 4.70165 14.4878 4.68645C13.6834 4.61897 12.8738 4.71916 12.1101 4.98069C11.3465 5.24222 10.6454 5.65939 10.0513 6.20582C9.45717 6.75224 8.98291 7.41603 8.65853 8.15518C8.33415 8.89433 8.16671 9.69275 8.16679 10.5V14.616C8.16675 15.1595 8.04013 15.6955 7.79696 16.1816L6.55446 18.6666H21.4458L20.2033 16.1816C19.9602 15.6955 19.8335 15.1595 19.8335 14.616V12.8333C19.8335 12.5239 19.9564 12.2271 20.1752 12.0083C20.394 11.7895 20.6907 11.6666 21.0001 11.6666C21.3095 11.6666 21.6063 11.7895 21.8251 12.0083C22.0439 12.2271 22.1668 12.5239 22.1668 12.8333V14.616C22.1666 14.7969 22.2086 14.9755 22.2893 15.1375L24.2925 19.1426C24.3903 19.3383 24.4365 19.5557 24.4267 19.7743C24.4169 19.9928 24.3513 20.2053 24.2363 20.3913C24.1213 20.5774 23.9606 20.7311 23.7695 20.8376C23.5784 20.9441 23.3632 21 23.1445 21H18.5198C18.2603 22.0012 17.6756 22.888 16.8576 23.521C16.0396 24.1541 15.0345 24.4976 14.0001 24.4976C12.9658 24.4976 11.9607 24.1541 11.1426 23.521C10.3246 22.888 9.73997 22.0012 9.48046 21H4.85579C4.63701 21 4.42186 20.9441 4.23077 20.8376C4.03967 20.7311 3.87898 20.5774 3.76396 20.3913C3.64893 20.2053 3.58339 19.9928 3.57356 19.7743C3.56373 19.5557 3.60994 19.3383 3.70779 19.1426L5.70979 15.1375C5.79092 14.9756 5.83326 14.797 5.83346 14.616V10.5ZM11.9795 21C12.1843 21.3546 12.4788 21.6492 12.8335 21.8539C13.1882 22.0587 13.5906 22.1665 14.0001 22.1665C14.4097 22.1665 14.812 22.0587 15.1667 21.8539C15.5214 21.6492 15.816 21.3546 16.0208 21H11.9795Z" fill="#09244B"/>
<path fill-rule="evenodd" clip-rule="evenodd" d="M16.3335 6.41683C16.3335 5.33386 16.7637 4.29525 17.5295 3.52948C18.2953 2.7637 19.3339 2.3335 20.4168 2.3335C21.4998 2.3335 22.5384 2.7637 23.3042 3.52948C24.07 4.29525 24.5002 5.33386 24.5002 6.41683C24.5002 7.4998 24.07 8.53841 23.3042 9.30418C22.5384 10.07 21.4998 10.5002 20.4168 10.5002C19.3339 10.5002 18.2953 10.07 17.5295 9.30418C16.7637 8.53841 16.3335 7.4998 16.3335 6.41683Z" fill="#FF3B30"/>
</g>
<defs>
<clipPath id="clip0_120_1448">
<rect width="28" height="28" fill="white"/>
</clipPath>
</defs>
</svg>
