<svg width="43" height="43" viewBox="0 0 43 43" fill="none" xmlns="http://www.w3.org/2000/svg">
<path fill-rule="evenodd" clip-rule="evenodd" d="M7.99883 27.7073C9.67885 26.0273 11.9574 25.0835 14.3333 25.0835H28.6667C31.0426 25.0835 33.3212 26.0273 35.0012 27.7073C36.6812 29.3873 37.625 31.6659 37.625 34.0418V37.6252C37.625 38.6147 36.8228 39.4168 35.8333 39.4168C34.8438 39.4168 34.0417 38.6147 34.0417 37.6252V34.0418C34.0417 32.6163 33.4754 31.2491 32.4674 30.2411C31.4594 29.2331 30.0922 28.6668 28.6667 28.6668H14.3333C12.9078 28.6668 11.5406 29.2331 10.5326 30.2411C9.52463 31.2491 8.95833 32.6163 8.95833 34.0418V37.6252C8.95833 38.6147 8.15618 39.4168 7.16667 39.4168C6.17716 39.4168 5.375 38.6147 5.375 37.6252V34.0418C5.375 31.6659 6.31882 29.3873 7.99883 27.7073Z" fill="black"/>
<path fill-rule="evenodd" clip-rule="evenodd" d="M21.5001 7.16683C18.5316 7.16683 16.1251 9.5733 16.1251 12.5418C16.1251 15.5104 18.5316 17.9168 21.5001 17.9168C24.4686 17.9168 26.8751 15.5104 26.8751 12.5418C26.8751 9.5733 24.4686 7.16683 21.5001 7.16683ZM12.5417 12.5418C12.5417 7.59428 16.5525 3.5835 21.5001 3.5835C26.4476 3.5835 30.4584 7.59428 30.4584 12.5418C30.4584 17.4894 26.4476 21.5002 21.5001 21.5002C16.5525 21.5002 12.5417 17.4894 12.5417 12.5418Z" fill="black"/>
</svg>
