<svg width="24" height="24" viewBox="0 0 24 24" fill="none" xmlns="http://www.w3.org/2000/svg">
<g clip-path="url(#clip0_118_2070)">
<path d="M10.268 20.158C10.631 20.325 10.923 20.492 11.121 20.615C11.406 20.792 11.645 21 12.001 21C12.349 21 12.596 20.79 12.879 20.615C13.077 20.492 13.369 20.325 13.732 20.158C14.465 19.819 15.443 19.5 16.5 19.5C17.779 19.5 18.938 19.968 19.68 20.362C19.9142 20.4846 20.1752 20.547 20.4396 20.5435C20.7039 20.54 20.9632 20.4708 21.194 20.342C21.621 20.106 22 19.632 22 19V6.5C22 5.879 21.705 5.237 21.102 4.871C20.328 4.401 18.586 3.5 16.5 3.5C15.057 3.5 13.785 3.93 12.893 4.342C12.539 4.506 12.237 4.67 12 4.81C11.763 4.67 11.461 4.506 11.107 4.342C10.215 3.931 8.94303 3.5 7.50003 3.5C5.41403 3.5 3.67203 4.4 2.89803 4.871C2.62079 5.04227 2.39246 5.28221 2.23514 5.56759C2.07782 5.85298 1.99684 6.17414 2.00003 6.5V19C2.00003 19.633 2.37903 20.106 2.80603 20.342C3.22903 20.575 3.80203 20.637 4.32103 20.362C5.06203 19.968 6.22103 19.5 7.50003 19.5C8.55703 19.5 9.53503 19.82 10.268 20.158Z" fill="#09244B"/>
</g>
<defs>
<clipPath id="clip0_118_2070">
<rect width="24" height="24" fill="white"/>
</clipPath>
</defs>
</svg>
