<svg width="24" height="24" viewBox="0 0 24 24" fill="none" xmlns="http://www.w3.org/2000/svg">
<g clip-path="url(#clip0_97_1541)">
<path fill-rule="evenodd" clip-rule="evenodd" d="M4.99999 8.99999C4.99996 8.03167 5.20083 7.07387 5.5899 6.18714C5.97898 5.30042 6.5478 4.50407 7.26039 3.84843C7.97298 3.19279 8.81386 2.69213 9.72985 2.37809C10.6458 2.06406 11.617 1.94348 12.582 2.02399C12.7144 2.03273 12.8437 2.06772 12.9625 2.12694C13.0812 2.18616 13.187 2.26841 13.2736 2.36892C13.3602 2.46942 13.426 2.58616 13.4671 2.71234C13.5081 2.83851 13.5237 2.97159 13.5128 3.10384C13.5019 3.23608 13.4648 3.36483 13.4037 3.48259C13.3426 3.60036 13.2586 3.70478 13.1567 3.78977C13.0548 3.87476 12.937 3.93862 12.8102 3.97763C12.6834 4.01664 12.55 4.03002 12.418 4.01699C11.7285 3.95915 11.0346 4.04503 10.38 4.2692C9.72545 4.49337 9.12453 4.85094 8.61528 5.31931C8.10603 5.78767 7.69953 6.35663 7.42149 6.99019C7.14345 7.62374 6.99992 8.30811 6.99999 8.99999V12.528C6.99996 12.9939 6.89143 13.4533 6.68299 13.87L5.61799 16H18.382L17.317 13.87C17.1086 13.4533 17.0001 12.9939 17 12.528V11C17 10.7348 17.1053 10.4804 17.2929 10.2929C17.4804 10.1054 17.7348 9.99999 18 9.99999C18.2652 9.99999 18.5196 10.1054 18.7071 10.2929C18.8946 10.4804 19 10.7348 19 11V12.528C18.9998 12.6831 19.0358 12.8362 19.105 12.975L20.822 16.408C20.9059 16.5757 20.9455 16.7621 20.937 16.9494C20.9286 17.1368 20.8724 17.3188 20.7738 17.4783C20.6753 17.6378 20.5375 17.7695 20.3737 17.8608C20.2099 17.9521 20.0255 18 19.838 18H15.874C15.6516 18.8582 15.1504 19.6183 14.4493 20.1609C13.7481 20.7035 12.8866 20.9979 12 20.9979C11.1134 20.9979 10.2519 20.7035 9.55073 20.1609C8.84956 19.6183 8.34843 18.8582 8.12599 18H4.16199C3.97447 18 3.79005 17.9521 3.62626 17.8608C3.46246 17.7695 3.32473 17.6378 3.22614 17.4783C3.12754 17.3188 3.07137 17.1368 3.06294 16.9494C3.05451 16.7621 3.09412 16.5757 3.17799 16.408L4.89399 12.975C4.96353 12.8362 4.99983 12.6832 4.99999 12.528V8.99999ZM10.268 18C10.4435 18.304 10.696 18.5565 11 18.732C11.3041 18.9075 11.6489 18.9999 12 18.9999C12.351 18.9999 12.6959 18.9075 12.9999 18.732C13.304 18.5565 13.5564 18.304 13.732 18H10.268Z" fill="#09244B"/>
<path fill-rule="evenodd" clip-rule="evenodd" d="M14 5.5C14 4.57174 14.3687 3.6815 15.0251 3.02513C15.6815 2.36875 16.5717 2 17.5 2C18.4283 2 19.3185 2.36875 19.9749 3.02513C20.6313 3.6815 21 4.57174 21 5.5C21 6.42826 20.6313 7.3185 19.9749 7.97487C19.3185 8.63125 18.4283 9 17.5 9C16.5717 9 15.6815 8.63125 15.0251 7.97487C14.3687 7.3185 14 6.42826 14 5.5Z" fill="#FF3B30"/>
</g>
<defs>
<clipPath id="clip0_97_1541">
<rect width="24" height="24" fill="white"/>
</clipPath>
</defs>
</svg>
