<svg width="24" height="24" viewBox="0 0 24 24" fill="none" xmlns="http://www.w3.org/2000/svg">
<g clip-path="url(#clip0_118_2065)">
<path fill-rule="evenodd" clip-rule="evenodd" d="M18.165 2.76497L18.42 2.79697C19.094 2.88997 19.986 3.01497 20.491 3.52097C20.905 3.93397 21.064 4.60597 21.159 5.20597L21.215 5.59197C21.341 6.50197 21.374 7.69397 21.159 9.01797C20.735 11.631 19.344 14.749 15.851 17.163C15.832 17.351 15.831 17.541 15.835 17.731L15.845 18.015C15.861 18.452 15.877 18.889 15.755 19.313C15.565 19.973 14.888 20.408 14.255 20.72L13.945 20.867L13.545 21.043C12.797 21.361 11.787 21.687 11.154 21.053C10.774 20.674 10.618 20.118 10.491 19.565L10.444 19.358C10.391 19.0966 10.3243 18.8383 10.244 18.584C10.194 18.438 10.14 18.289 10.082 18.139C10.0181 18.2173 9.9504 18.2924 9.87899 18.364C9.53399 18.709 9.01899 18.95 8.59499 19.119C8.13199 19.302 7.60799 19.462 7.12299 19.594L6.87399 19.66L6.39699 19.779L5.96499 19.879L5.44799 19.989L5.12499 20.052C4.9639 20.0818 4.79797 20.072 4.64151 20.0234C4.48506 19.9748 4.34277 19.8889 4.22693 19.773C4.11109 19.6572 4.02516 19.5149 3.97656 19.3584C3.92797 19.202 3.91816 19.0361 3.94799 18.875L4.03399 18.444L4.18799 17.746L4.31199 17.236L4.40599 16.876C4.53799 16.392 4.69799 15.868 4.88199 15.406C5.04999 14.981 5.29099 14.466 5.63599 14.121L5.71599 14.044L5.65199 14.018C5.48108 13.953 5.30798 13.894 5.13299 13.841L4.85599 13.756C4.16199 13.546 3.41999 13.32 2.95899 12.858C2.39899 12.299 2.58799 11.448 2.85799 10.74L2.96799 10.466L3.14499 10.066L3.29199 9.75597C3.60399 9.12397 4.03899 8.44697 4.69899 8.25697C5.04899 8.15697 5.41299 8.15097 5.77899 8.16097L5.99899 8.16797C6.28499 8.17797 6.56999 8.18897 6.84899 8.16197C9.26299 4.66797 12.381 3.27697 14.994 2.85297C16.0422 2.68105 17.1088 2.65145 18.165 2.76497ZM8.35299 15.44C8.1956 15.3235 8.0075 15.2557 7.81198 15.245C7.61647 15.2344 7.42211 15.2813 7.25299 15.38L7.14299 15.454L7.04999 15.537L6.92499 15.695C6.66499 16.071 6.51699 16.591 6.40199 17.077L6.29399 17.545L6.24299 17.758L6.43399 17.712L6.85199 17.616C7.42999 17.481 8.07099 17.306 8.46499 16.951C8.6363 16.7798 8.73964 16.5522 8.75583 16.3105C8.77201 16.0688 8.69994 15.8295 8.55299 15.637L8.47099 15.543L8.44699 15.52L8.35299 15.44ZM15.536 8.46597C15.3503 8.28022 15.1298 8.13286 14.8872 8.0323C14.6446 7.93175 14.3845 7.87997 14.1218 7.87992C13.8592 7.87988 13.5991 7.93156 13.3564 8.03203C13.1138 8.1325 12.8932 8.27978 12.7075 8.46547C12.5217 8.65116 12.3744 8.87162 12.2738 9.11426C12.1733 9.3569 12.1215 9.61697 12.1214 9.87962C12.1214 10.1423 12.1731 10.4024 12.2735 10.645C12.374 10.8877 12.5213 11.1082 12.707 11.294C13.082 11.6691 13.5907 11.8799 14.1211 11.88C14.6516 11.8801 15.1603 11.6695 15.5355 11.2945C15.9106 10.9195 16.1214 10.4108 16.1215 9.88033C16.1216 9.34988 15.911 8.84112 15.536 8.46597Z" fill="#09244B"/>
</g>
<defs>
<clipPath id="clip0_118_2065">
<rect width="24" height="24" fill="white"/>
</clipPath>
</defs>
</svg>
